<?xml version="1.0" encoding="utf-8"?>
<svg viewBox="272.9998 216.231 30.0002 30" xmlns="http://www.w3.org/2000/svg" xmlns:bx="https://boxy-svg.com">
  <path style="fill: rgb(216, 216, 216); stroke: rgb(0, 0, 0);" d="M 273 219.339 H 302 A 1 1 0 0 1 303 220.339 V 245.231 A 1 1 0 0 1 302 246.231 H 274 A 1 1 0 0 1 273 245.231 V 219.339 Z" transform="matrix(1, 0, 0, 1, -2.842170943040401e-14, 0)" bx:shape="rect 273 219.339 30 26.892 0 1 1 1 1@97b7cb8a"/>
  <path d="M 288.501 234.17 C 288.501 234.775 287.805 235.153 287.248 234.851 C 286.989 234.711 286.83 234.451 286.83 234.17 C 286.83 233.565 287.526 233.186 288.084 233.489 C 288.342 233.63 288.501 233.888 288.501 234.17 Z M 282.651 237.315 C 283.294 237.315 283.696 236.66 283.376 236.136 C 283.226 235.893 282.95 235.743 282.651 235.743 C 282.008 235.743 281.606 236.398 281.927 236.922 C 282.076 237.166 282.353 237.315 282.651 237.315 Z M 283.487 238.889 C 283.487 239.494 282.791 239.872 282.233 239.57 C 281.975 239.43 281.815 239.169 281.815 238.889 C 281.815 238.284 282.512 237.905 283.069 238.208 C 283.328 238.349 283.487 238.607 283.487 238.889 Z M 285.158 237.315 C 285.801 237.315 286.204 236.66 285.883 236.136 C 285.733 235.893 285.457 235.743 285.158 235.743 C 284.515 235.743 284.113 236.398 284.434 236.922 C 284.583 237.166 284.86 237.315 285.158 237.315 Z M 285.994 238.889 C 285.994 239.494 285.298 239.872 284.741 239.57 C 284.482 239.43 284.323 239.169 284.323 238.889 C 284.323 238.284 285.019 237.905 285.576 238.208 C 285.835 238.349 285.994 238.607 285.994 238.889 Z M 287.666 237.315 C 288.309 237.315 288.711 236.66 288.39 236.136 C 288.241 235.893 287.964 235.743 287.666 235.743 C 287.023 235.743 286.62 236.398 286.941 236.922 C 287.091 237.166 287.367 237.315 287.666 237.315 Z M 288.501 238.889 C 288.501 239.494 287.805 239.872 287.248 239.57 C 286.989 239.43 286.83 239.169 286.83 238.889 C 286.83 238.284 287.526 237.905 288.084 238.208 C 288.342 238.349 288.501 238.607 288.501 238.889 Z M 290.173 237.315 C 290.816 237.315 291.218 236.66 290.897 236.136 C 290.748 235.893 290.472 235.743 290.173 235.743 C 289.53 235.743 289.128 236.398 289.449 236.922 C 289.598 237.166 289.874 237.315 290.173 237.315 Z M 291.009 238.889 C 291.009 239.494 290.312 239.872 289.755 239.57 C 289.497 239.43 289.337 239.169 289.337 238.889 C 289.337 238.284 290.034 237.905 290.591 238.208 C 290.849 238.349 291.009 238.607 291.009 238.889 Z M 292.68 237.315 C 293.323 237.315 293.725 236.66 293.405 236.136 C 293.255 235.893 292.979 235.743 292.68 235.743 C 292.037 235.743 291.635 236.398 291.956 236.922 C 292.105 237.166 292.382 237.315 292.68 237.315 Z M 291.009 234.17 C 291.009 234.775 290.312 235.153 289.755 234.851 C 289.497 234.711 289.337 234.451 289.337 234.17 C 289.337 233.565 290.034 233.186 290.591 233.489 C 290.849 233.63 291.009 233.888 291.009 234.17 Z M 292.68 234.956 C 293.323 234.956 293.725 234.301 293.405 233.776 C 293.255 233.533 292.979 233.383 292.68 233.383 C 292.037 233.383 291.635 234.038 291.956 234.563 C 292.105 234.806 292.382 234.956 292.68 234.956 Z" transform="matrix(1, 0, 0, 1, -2.842170943040401e-14, 0)"/>
  <path fill-rule="evenodd" d="M 281.815 223.159 C 282.277 223.159 282.651 223.511 282.651 223.946 L 282.651 225.518 L 292.68 225.518 L 292.68 223.946 C 292.68 223.341 293.377 222.962 293.934 223.266 C 294.192 223.406 294.352 223.664 294.352 223.946 L 294.352 225.518 L 295.187 225.518 C 297.034 225.518 298.53 226.926 298.53 228.665 L 298.53 240.461 C 298.53 242.199 297.034 243.607 295.187 243.607 L 280.144 243.607 C 278.298 243.607 276.801 242.199 276.801 240.461 L 276.801 228.665 C 276.801 226.926 278.298 225.518 280.144 225.518 L 280.98 225.518 L 280.98 223.946 C 280.98 223.511 281.354 223.159 281.815 223.159 Z M 296.859 232.596 C 296.859 231.728 296.11 231.024 295.187 231.024 L 280.144 231.024 C 279.221 231.024 278.472 231.728 278.472 232.596 L 278.472 240.461 C 278.472 241.33 279.221 242.035 280.144 242.035 L 295.187 242.035 C 296.11 242.035 296.859 241.33 296.859 240.461 L 296.859 232.596 Z" clip-rule="evenodd" transform="matrix(1, 0, 0, 1, -2.842170943040401e-14, 0)"/>
  <path style="fill: rgb(216, 216, 216); stroke: rgb(0, 0, 0);" d="M 305.212 226.796 H 310.602 A 1 1 0 0 1 311.602 227.796 V 229.63 H 304.212 V 227.796 A 1 1 0 0 1 305.212 226.796 Z" transform="matrix(1, 0, 0, 1, -31.212202072143583, -10.513433456420898)" bx:shape="rect 304.212 226.796 7.39 2.834 1 1 0 0 1@242dfbcb"/>
  <path style="fill: rgb(216, 216, 216); stroke: rgb(0, 0, 0);" d="M 282.486 216.282 H 287.876 A 1 1 0 0 1 288.876 217.282 V 219.116 H 281.486 V 217.282 A 1 1 0 0 1 282.486 216.282 Z" transform="matrix(1, 0, 0, 1, -2.842170943040401e-14, 0)" bx:shape="rect 281.486 216.282 7.39 2.834 1 1 0 0 1@de012514"/>
  <path style="fill: rgb(216, 216, 216); stroke: rgb(0, 0, 0);" d="M 290.971 216.231 H 296.361 A 1 1 0 0 1 297.361 217.231 V 219.065 H 289.971 V 217.231 A 1 1 0 0 1 290.971 216.231 Z" transform="matrix(1, 0, 0, 1, -2.842170943040401e-14, 0)" bx:shape="rect 289.971 216.231 7.39 2.834 1 1 0 0 1@8d63cf93"/>
</svg>