<?xml version="1.0" encoding="utf-8"?>
<svg viewBox="217.086 171.339 26.922 28.609" xmlns="http://www.w3.org/2000/svg" xmlns:bx="https://boxy-svg.com">
  <path style="fill: rgb(216, 216, 216); stroke: rgb(0, 0, 0);" d="M 217.086 174.303 H 243.008 A 1 1 0 0 1 244.008 175.303 V 198.948 A 1 1 0 0 1 243.008 199.948 H 218.086 A 1 1 0 0 1 217.086 198.948 V 174.303 Z" bx:shape="rect 217.086 174.303 26.922 25.645 0 1 1 1 1@ca89215c"/>
  <path d="M 230.997 188.446 C 230.997 189.023 230.372 189.384 229.872 189.096 C 229.64 188.962 229.497 188.714 229.497 188.446 C 229.497 187.869 230.122 187.508 230.622 187.797 C 230.854 187.931 230.997 188.178 230.997 188.446 Z M 225.747 191.446 C 226.324 191.446 226.685 190.821 226.397 190.321 C 226.263 190.089 226.015 189.946 225.747 189.946 C 225.17 189.946 224.809 190.571 225.097 191.071 C 225.231 191.303 225.479 191.446 225.747 191.446 Z M 226.497 192.946 C 226.497 193.523 225.872 193.884 225.372 193.596 C 225.14 193.462 224.997 193.214 224.997 192.946 C 224.997 192.369 225.622 192.008 226.122 192.297 C 226.354 192.431 226.497 192.678 226.497 192.946 Z M 227.997 191.446 C 228.574 191.446 228.935 190.821 228.647 190.321 C 228.513 190.089 228.265 189.946 227.997 189.946 C 227.42 189.946 227.059 190.571 227.347 191.071 C 227.481 191.303 227.729 191.446 227.997 191.446 Z M 228.747 192.946 C 228.747 193.523 228.122 193.884 227.622 193.596 C 227.39 193.462 227.247 193.214 227.247 192.946 C 227.247 192.369 227.872 192.008 228.372 192.297 C 228.604 192.431 228.747 192.678 228.747 192.946 Z M 230.247 191.446 C 230.824 191.446 231.185 190.821 230.897 190.321 C 230.763 190.089 230.515 189.946 230.247 189.946 C 229.67 189.946 229.309 190.571 229.597 191.071 C 229.731 191.303 229.979 191.446 230.247 191.446 Z M 230.997 192.946 C 230.997 193.523 230.372 193.884 229.872 193.596 C 229.64 193.462 229.497 193.214 229.497 192.946 C 229.497 192.369 230.122 192.008 230.622 192.297 C 230.854 192.431 230.997 192.678 230.997 192.946 Z M 232.497 191.446 C 233.074 191.446 233.435 190.821 233.147 190.321 C 233.013 190.089 232.765 189.946 232.497 189.946 C 231.92 189.946 231.559 190.571 231.847 191.071 C 231.981 191.303 232.229 191.446 232.497 191.446 Z M 233.247 192.946 C 233.247 193.523 232.622 193.884 232.122 193.596 C 231.89 193.462 231.747 193.214 231.747 192.946 C 231.747 192.369 232.372 192.008 232.872 192.297 C 233.104 192.431 233.247 192.678 233.247 192.946 Z M 234.747 191.446 C 235.324 191.446 235.685 190.821 235.397 190.321 C 235.263 190.089 235.015 189.946 234.747 189.946 C 234.17 189.946 233.809 190.571 234.097 191.071 C 234.231 191.303 234.479 191.446 234.747 191.446 Z M 233.247 188.446 C 233.247 189.023 232.622 189.384 232.122 189.096 C 231.89 188.962 231.747 188.714 231.747 188.446 C 231.747 187.869 232.372 187.508 232.872 187.797 C 233.104 187.931 233.247 188.178 233.247 188.446 Z M 234.747 189.196 C 235.324 189.196 235.685 188.571 235.397 188.071 C 235.263 187.839 235.015 187.696 234.747 187.696 C 234.17 187.696 233.809 188.321 234.097 188.821 C 234.231 189.053 234.479 189.196 234.747 189.196 Z"/>
  <path fill-rule="evenodd" d="M 224.997 177.946 C 225.411 177.946 225.747 178.282 225.747 178.696 L 225.747 180.196 L 234.747 180.196 L 234.747 178.696 C 234.747 178.119 235.372 177.758 235.872 178.047 C 236.104 178.181 236.247 178.428 236.247 178.696 L 236.247 180.196 L 236.997 180.196 C 238.654 180.196 239.997 181.539 239.997 183.196 L 239.997 194.446 C 239.997 196.103 238.654 197.446 236.997 197.446 L 223.497 197.446 C 221.84 197.446 220.497 196.103 220.497 194.446 L 220.497 183.196 C 220.497 181.539 221.84 180.196 223.497 180.196 L 224.247 180.196 L 224.247 178.696 C 224.247 178.282 224.583 177.946 224.997 177.946 Z M 238.497 186.946 C 238.497 186.118 237.825 185.446 236.997 185.446 L 223.497 185.446 C 222.669 185.446 221.997 186.118 221.997 186.946 L 221.997 194.446 C 221.997 195.275 222.669 195.946 223.497 195.946 L 236.997 195.946 C 237.825 195.946 238.497 195.275 238.497 194.446 L 238.497 186.946 Z" clip-rule="evenodd"/>
  <path style="fill: rgb(216, 216, 216); stroke: rgb(0, 0, 0);" d="M 218.086 171.388 H 222.718 A 1 1 0 0 1 223.718 172.388 V 174.09 H 217.086 V 172.388 A 1 1 0 0 1 218.086 171.388 Z" bx:shape="rect 217.086 171.388 6.632 2.702 1 1 0 0 1@c486051c"/>
  <path style="fill: rgb(216, 216, 216); stroke: rgb(0, 0, 0);" d="M 225.701 171.388 H 230.333 A 1 1 0 0 1 231.333 172.388 V 174.09 H 224.701 V 172.388 A 1 1 0 0 1 225.701 171.388 Z" bx:shape="rect 224.701 171.388 6.632 2.702 1 1 0 0 1@7280206c"/>
  <path style="fill: rgb(216, 216, 216); stroke: rgb(0, 0, 0);" d="M 233.316 171.339 H 237.948 A 1 1 0 0 1 238.948 172.339 V 174.041 H 232.316 V 172.339 A 1 1 0 0 1 233.316 171.339 Z" bx:shape="rect 232.316 171.339 6.632 2.702 1 1 0 0 1@fae63626"/>
</svg>